# xmcd
#
# Track frame offsets:
#	150
#	31683
#	57854
#	108707
#	130580
#	171636
#	189448
#	212483
#
# Disc length: 3532 seconds
#
# Revision: 1
# Processed by: cddbd v1.5.1PL0 Copyright (c) Steve Scherf et al.
# Submitted via: EasyCDDAExtractor 5.1.0
#
DISCID=6a0dca08
DTITLE=Judas Priest - Pacifico Yokohama National Convention Hall 08-05-05 Disc
DTITLE=2
DYEAR=2005
DGENRE=Metal
TTITLE0=Turbo Lover
TTITLE1=Hellrider
TTITLE2=Victim Of Changes
TTITLE3=The Green Manalishi (With The Two-Pronged Crown)
TTITLE4=Painkiller
TTITLE5=Hell Bent For Leather
TTITLE6=Living After Midnight
TTITLE7=You've Got Another Thing Coming
EXTD=
EXTT0=
EXTT1=
EXTT2=
EXTT3=
EXTT4=
EXTT5=
EXTT6=
EXTT7=
PLAYORDER=
